<svg width="1365" height="146" viewBox="0 0 1365 146" fill="none" xmlns="http://www.w3.org/2000/svg">
<path d="M5.5 1H1364V145H0L103 78L5.5 1Z" fill="#FFB200"/>
<path d="M1034 107.5H949H605L753.5 2H1034V107.5Z" fill="#FFAE00" fill-opacity="0.5" stroke="white" stroke-opacity="0.15" stroke-width="0.5"/>
<path d="M431.5 108L472 81.5L515 108H690V144.5H487.5L431.5 108Z" fill="#FFB200" fill-opacity="0.5" stroke="white" stroke-opacity="0.15"/>
<path d="M1066 126L870.5 2.5H965L1095.5 94.5L1066 126Z" fill="#FFB100" fill-opacity="0.5" stroke="#FFA600"/>
<path d="M904 135.5L917.5 145H1043.5L1063 124.5L990.5 78L904 135.5Z" fill="#FFAC00" fill-opacity="0.5" stroke="#FFA600" stroke-width="2"/>
<path d="M869.5 1L731 83.5H811L862.5 53.5L945 108.5L990.5 78L869.5 1Z" stroke="white" stroke-opacity="0.15"/>
<path d="M643 80.5L552 144.5H635L730 84L643 80.5Z" fill="#FFA800" fill-opacity="0.75" stroke="white" stroke-opacity="0.15"/>
<path d="M692 144.5V108.5L731 83.5H811.5L863 54L946 108L904.5 135.5L918.5 145L692 144.5Z" fill="#FFB200" stroke="#FF9F00"/>
<path d="M803 145L821.579 126H920L904.936 136.231L920 145H803Z" fill="#FFAC00" fill-opacity="0.5" stroke="#FF9F00"/>
<path d="M535 1L643 80.5L603.5 108H515.5L471 80.5L429.5 54H494.5L424 1.5L535 1Z" fill="#FFAE00" fill-opacity="0.5" stroke="#FFBE43"/>
<path d="M607.5 54L536.5 1.5H753.5L680 54H607.5Z" fill="#FFBD00"/>
<path d="M680 54C656.833 54.3333 610.7 55.3 607.5 54.5L643 81L680 54Z" fill="#F3A805" fill-opacity="0.5"/>
<path d="M643.002 80.3779L609.229 55.166C609.623 55.1859 610.071 55.2064 610.568 55.2217C612.188 55.2714 614.349 55.2983 616.919 55.3066C622.06 55.3233 628.854 55.2665 636.269 55.1748C650.439 54.9996 666.894 54.6965 678.432 54.5244L643.002 80.3779Z" stroke="white" stroke-opacity="0.1"/>
<path d="M364 14.5C315.667 50.3333 218.2 107.5 215 107.5L515.5 108.5L364 14.5Z" fill="#FFA900" fill-opacity="0.5" stroke="white" stroke-opacity="0.25" stroke-width="0.5"/>
<path d="M471 80.5H106L4.5 145H488L431.5 108.5L471 80.5Z" fill="#FFC000" fill-opacity="0.5" stroke="white" stroke-opacity="0.25" stroke-width="0.5"/>
<path d="M151.5 108H432L487 145H206L151.5 108Z" stroke="white" stroke-opacity="0.25" stroke-width="0.5"/>
<path d="M349.5 145L366 135H471L487 145H349.5Z" fill="#FFAA00" stroke="white" stroke-opacity="0.25" stroke-width="0.5"/>
<path d="M144.5 52L76 2H303.5L220.5 52H144.5Z" fill="#FFB900" stroke="white" stroke-opacity="0.15"/>
<path d="M1354.5 1H1321.5L1363.91 45.5V11.6446L1354.5 1Z" fill="#FFA300" stroke="white" stroke-opacity="0.25" stroke-width="0.5"/>
<path d="M1359.19 42.7656L1319.5 1.5H1292L1314.16 24.8314L1201.57 25.3589L1176.5 1H1034L1070.66 27.9963L1200.52 26.9413L1166.49 63.8646H1237.7L1258.13 42.7656H1359.19Z" fill="#FFC000"/>
<path d="M1086.71 40.8125L1071.04 28.5938L1199 27L1155.13 74.8125H1102.9L1091.93 86.5H1106.55L1084.1 110.406L1126.92 109.344L1097 138L1183.5 138L1177.5 145L1036 146L1068.95 110.406H1041.79L1106.55 40.8125H1086.71Z" fill="#FFB400"/>
<path d="M1364 145.5H1219L1239.8 108.173L1083.22 109.755L1105.74 86.5463H1281.17L1302.12 63.3374H1349.77L1364 50.5V145.5Z" fill="#FFC100"/>
<path d="M1229.85 98.6783L1218.33 86.5464H1279.6L1289.55 98.6783H1229.85Z" fill="#FFCE00"/>
<path d="M1203.14 25.359L1179.5 1.09521H1291L1314.16 24.8316L1203.14 25.359Z" fill="#FFD400"/>
<path d="M1231.42 24.8317L1207.5 1H1245L1269.65 24.8317H1231.42Z" fill="#FFA700" stroke="white" stroke-opacity="0.25" stroke-width="0.5"/>
<path d="M1364 47L1360.77 43.8208H1258.65L1237.7 64.9198L1165.44 64.3923L1156.54 74.4143L1290.07 74.9418L1300.54 63.3374H1349.77L1364 50.5V47Z" fill="#FFD200"/>
<path d="M1091.08 86.546L1102.6 74.4141L1290.07 74.9415L1279.6 86.546H1091.08Z" fill="#FFA600" stroke="white" stroke-opacity="0.25" stroke-width="0.5"/>
<path d="M1253.41 122.942L1229.85 98.6782H1342.96L1354.48 110.81H1301.59L1290.59 122.942H1253.41Z" fill="#FFA500" stroke="white" stroke-opacity="0.25" stroke-width="0.5"/>
<path d="M1363.91 119.777L1333.01 88.1289H1363.91V119.777Z" fill="#FFCF00"/>
<path d="M1252.37 122.942L1239.28 109.228L1124.59 110.282L1097.36 138.766H1183.77L1198.43 122.942H1252.37Z" fill="#FFD000"/>
<path d="M1177 145L1182.84 139H1227L1220 145H1177Z" fill="#F2AF00"/>
<path d="M1183.77 138.766L1198.43 123.469H1232.47L1247.13 138.766H1183.77Z" fill="#FF9F00" stroke="white" stroke-opacity="0.25" stroke-width="0.5"/>
</svg>
